<?xml version="1.0" encoding="utf-8"?>
<!-- Generator: Adobe Illustrator 18.1.1, SVG Export Plug-In . SVG Version: 6.00 Build 0)  -->
<!DOCTYPE svg PUBLIC "-//W3C//DTD SVG 1.1//EN" "http://www.w3.org/Graphics/SVG/1.1/DTD/svg11.dtd">
<svg version="1.1" id="Layer_1" xmlns="http://www.w3.org/2000/svg" xmlns:xlink="http://www.w3.org/1999/xlink" x="0px" y="0px"
	 viewBox="0 -196.4 5669.3 3454.1" enable-background="new 0 -196.4 5669.3 3454.1" xml:space="preserve">
<polygon fill="#FFFFFF" points="2834.1,-196.4 1338.8,666.9 1338.8,2394.5 2834.1,3257.8 4330.5,2394.5 4330.5,666.9 "/>
<g>
	<g>
		<g>
			<polygon fill="#1383C6" points="1508.8,765.1 1508.8,1531.2 2834.2,2296.3 2834.2,1531.2 			"/>
			<polygon fill="#634C9F" points="1508.8,1531.2 1508.8,2296.3 2834.2,3061.4 2834.2,2296.3 			"/>
		</g>
		<g>
			<polygon fill="#EA0B8C" points="2834.2,1531.2 2834.2,3061.4 3497.8,2678.9 3497.8,1147.7 			"/>
			<polygon fill="#F58022" points="3497.8,1147.7 3497.8,2678.9 4160.4,2296.3 4160.4,765.1 			"/>
		</g>
	</g>
	<g>
		<polygon fill="#2AB673" points="2834.2,0 1508.8,765.1 2171.5,1147.7 3497.8,382.6 		"/>
		<polyline fill="#FCD20B" points="2834.2,1531.2 4160.4,765.1 3497.8,382.6 2171.5,1147.7 		"/>
	</g>
</g>
</svg>
