<?xml version="1.0" encoding="UTF-8" standalone="no"?>
<!-- Created with Inkscape (http://www.inkscape.org/) -->

<svg
   xmlns:dc="http://purl.org/dc/elements/1.1/"
   xmlns:cc="http://creativecommons.org/ns#"
   xmlns:rdf="http://www.w3.org/1999/02/22-rdf-syntax-ns#"
   xmlns:svg="http://www.w3.org/2000/svg"
   xmlns="http://www.w3.org/2000/svg"
   xmlns:sodipodi="http://sodipodi.sourceforge.net/DTD/sodipodi-0.dtd"
   xmlns:inkscape="http://www.inkscape.org/namespaces/inkscape"
   width="32"
   height="32"
   id="svg3073"
   version="1.1"
   inkscape:version="0.48.3.1 r9886"
   sodipodi:docname="pledge-marker.svg"
   inkscape:export-filename="/home/keith/www/badgetheworld/img/pledge-marker.png"
   inkscape:export-xdpi="72"
   inkscape:export-ydpi="72">
  <defs
     id="defs3075" />
  <sodipodi:namedview
     id="base"
     pagecolor="#ffffff"
     bordercolor="#666666"
     borderopacity="1.0"
     inkscape:pageopacity="0.0"
     inkscape:pageshadow="2"
     inkscape:zoom="11.2"
     inkscape:cx="3.9558629"
     inkscape:cy="17.723882"
     inkscape:document-units="px"
     inkscape:current-layer="layer1"
     showgrid="false"
     fit-margin-top="0"
     fit-margin-left="0"
     fit-margin-right="0"
     fit-margin-bottom="0"
     inkscape:window-width="871"
     inkscape:window-height="660"
     inkscape:window-x="225"
     inkscape:window-y="106"
     inkscape:window-maximized="0" />
  <metadata
     id="metadata3078">
    <rdf:RDF>
      <cc:Work
         rdf:about="">
        <dc:format>image/svg+xml</dc:format>
        <dc:type
           rdf:resource="http://purl.org/dc/dcmitype/StillImage" />
      </cc:Work>
    </rdf:RDF>
  </metadata>
  <g
     inkscape:label="Layer 1"
     inkscape:groupmode="layer"
     id="layer1"
     transform="translate(-411.58266,-491.60105)">
    <g
       transform="matrix(1.1797235,0,0,-1.1797235,-890.00777,1491.8953)"
       id="g3099"
       inkscape:export-filename="/home/keith/www/badgetheworld/img/pledge-marker.png"
       inkscape:export-xdpi="72"
       inkscape:export-ydpi="72">
      <g
         transform="translate(1116.2405,821.21568)"
         id="g58">
        <path
           inkscape:connector-curvature="0"
           id="path60"
           style="fill:#ffffff;fill-opacity:1;fill-rule:nonzero;stroke:none"
           d="m 0,0 c -0.428,0.315 -10.496,7.804 -10.249,15.879 0.016,0.531 0.077,1.028 0.181,1.477 0.743,5.326 5.346,9.334 10.727,9.334 5.978,0 10.841,-4.863 10.841,-10.841 0,-1.13 -0.177,-2.251 -0.527,-3.332 C 9.046,5.838 1.504,0.236 1.184,0 L 0.592,-0.435 0,0 z" />
      </g>
      <g
         transform="translate(1126.7407,837.06448)"
         id="g62">
        <path
           inkscape:connector-curvature="0"
           id="path64"
           style="fill:#f48123;fill-opacity:1;fill-rule:nonzero;stroke:none"
           d="m 0,0 c 0,5.435 -4.406,9.842 -9.841,9.842 -4.986,0 -9.095,-3.71 -9.743,-8.517 -0.092,-0.383 -0.15,-0.82 -0.166,-1.325 -0.233,-7.643 9.842,-15.043 9.842,-15.043 0,0 7.565,5.56 9.429,12.018 C -0.17,-2.071 0,-1.056 0,0" />
      </g>
      <path
         inkscape:connector-curvature="0"
         id="path66"
         style="fill:#ffffff;fill-opacity:1;fill-rule:nonzero;stroke:none"
         d="m 1118.1405,830.85788 -2.483,0 0,12.413 2.483,0 0,-12.413 z" />
      <path
         inkscape:connector-curvature="0"
         id="path68"
         style="fill:#ffffff;fill-opacity:1;fill-rule:nonzero;stroke:none"
         d="m 1110.6925,838.30588 12.413,0 0,-2.483 -12.413,0 0,2.483 z" />
    </g>
  </g>
</svg>
