<?xml version="1.0" encoding="UTF-8" standalone="no"?>
<!-- Generator: Adobe Illustrator 18.1.1, SVG Export Plug-In . SVG Version: 6.00 Build 0)  -->

<svg
   xmlns:dc="http://purl.org/dc/elements/1.1/"
   xmlns:cc="http://creativecommons.org/ns#"
   xmlns:rdf="http://www.w3.org/1999/02/22-rdf-syntax-ns#"
   xmlns:svg="http://www.w3.org/2000/svg"
   xmlns="http://www.w3.org/2000/svg"
   xmlns:sodipodi="http://sodipodi.sourceforge.net/DTD/sodipodi-0.dtd"
   xmlns:inkscape="http://www.inkscape.org/namespaces/inkscape"
   version="1.1"
   id="Layer_1"
   x="0px"
   y="0px"
   viewBox="0 0 93.5 53.6"
   enable-background="new 0 0 93.5 53.6"
   xml:space="preserve"
   inkscape:version="0.48.3.1 r9886"
   width="100%"
   height="100%"
   sodipodi:docname="pledge-here-text.svg"><metadata
   id="metadata33"><rdf:RDF><cc:Work
       rdf:about=""><dc:format>image/svg+xml</dc:format><dc:type
         rdf:resource="http://purl.org/dc/dcmitype/StillImage" /></cc:Work></rdf:RDF></metadata><defs
   id="defs31" /><sodipodi:namedview
   pagecolor="#ffffff"
   bordercolor="#666666"
   borderopacity="1"
   objecttolerance="10"
   gridtolerance="10"
   guidetolerance="10"
   inkscape:pageopacity="0"
   inkscape:pageshadow="2"
   inkscape:window-width="1920"
   inkscape:window-height="977"
   id="namedview29"
   showgrid="false"
   inkscape:zoom="2.8770053"
   inkscape:cx="49.940418"
   inkscape:cy="20.348126"
   inkscape:window-x="0"
   inkscape:window-y="24"
   inkscape:window-maximized="1"
   inkscape:current-layer="g25" />
<g
   id="g3">
	<path
   fill="#073B5A"
   d="M0,8.1C0,8.1,0,8,0,8c0-0.1,0-0.1,0-0.1c0.5-0.1,1-0.3,1.4-0.3c0.4-0.1,0.9-0.1,1.3-0.2   c0.4,0,0.8-0.1,1.3-0.1c0.4,0,0.9,0,1.4,0c0.7,0,1.3,0,1.9,0.1C7.9,7.5,8.5,7.7,8.9,8c0.4,0.3,0.8,0.7,1.1,1.1   c0.3,0.5,0.4,1.1,0.4,1.9c0,1.1-0.2,2-0.7,2.9c-0.4,0.8-1,1.6-1.8,2.2s-1.6,1.1-2.5,1.6c-0.9,0.4-1.9,0.7-2.8,1v0.3   c0,0.5,0,0.9,0.1,1.4c0.1,0.4,0.1,0.9,0.2,1.3C2.9,22,3,22.4,3.1,22.9c0.1,0.4,0.1,0.9,0.1,1.4H2.1c0-0.3-0.1-0.8-0.1-1.4   c-0.1-0.6-0.1-1.4-0.2-2.2c-0.1-0.8-0.1-1.7-0.2-2.6c-0.1-0.9-0.1-1.7-0.2-2.5c-0.1-0.8-0.1-1.5-0.2-2.2c-0.1-0.6-0.1-1.1-0.1-1.4   c0-0.3-0.1-0.6-0.2-1c-0.1-0.3-0.2-0.7-0.4-1C0.4,9.7,0.3,9.3,0.2,9C0.1,8.7,0,8.4,0,8.1z M2,10c0,0.6,0,1.2,0,1.8   c0,0.6,0.1,1.1,0.1,1.7c0,0.6,0.1,1.1,0.2,1.7c0.1,0.6,0.1,1.2,0.2,1.8c0.1,0,0.2,0,0.4,0c0.2,0,0.3,0,0.4,0c0.7,0,1.4-0.2,2.1-0.5   s1.3-0.7,1.9-1.3c0.6-0.5,1-1.1,1.4-1.8c0.4-0.7,0.5-1.4,0.5-2.1c0-0.7-0.1-1.3-0.3-1.7C8.7,9.4,8.4,9.1,8,8.8   C7.6,8.6,7.1,8.5,6.6,8.4S5.5,8.3,4.9,8.3c-0.1,0-0.2,0-0.5,0c-0.2,0-0.5,0-0.7,0c-0.2,0-0.5,0-0.7,0c-0.2,0-0.4,0-0.5,0   c-0.2,0-0.3,0.1-0.4,0.3C2.1,8.8,2,8.9,2,9.1c0,0.2,0,0.4,0,0.5C2,9.8,2,9.9,2,10z"
   id="path5" />
	<path
   fill="#073B5A"
   d="M10.6,0.6l1.2-0.2c0.1,0.8,0.1,1.7,0.2,2.7C12,4.1,12,5.2,12,6.3c0,1.1,0.1,2.3,0.1,3.5   c0,1.2,0.1,2.3,0.1,3.4c0,1.1,0,2,0.1,2.9c0,0.9,0.1,1.5,0.1,2c0,0.2,0,0.4-0.1,0.6c-0.1,0.2-0.2,0.3-0.3,0.4   c-0.1,0.1-0.2,0.1-0.3,0s-0.2-0.2-0.3-0.5L10.6,0.6z"
   id="path7" />
	<path
   fill="#073B5A"
   d="M13.9,17.6c-0.5-1.6-0.8-2.9-0.9-4.1c-0.1-1.2-0.2-2.1-0.1-3s0.3-1.5,0.6-2c0.3-0.5,0.7-0.9,1.1-1.2   c0.4-0.3,0.9-0.4,1.5-0.5c0.5-0.1,1-0.1,1.6,0c0.3,0,0.5,0.1,0.8,0.2c0.3,0.1,0.5,0.3,0.8,0.5c0.2,0.2,0.4,0.5,0.6,0.7   c0.1,0.3,0.2,0.5,0.2,0.8c0,0.8-0.2,1.4-0.5,1.9s-0.8,0.9-1.4,1.3c-0.6,0.3-1.2,0.6-1.8,0.8c-0.7,0.2-1.3,0.3-1.9,0.4   c0,0,0,0.1,0,0.2c0,0.1,0,0.2,0,0.3c0,0.1,0,0.2,0,0.3c0,0.1,0,0.2,0,0.2c0,0.4,0.1,0.8,0.2,1.2c0.1,0.4,0.3,0.8,0.6,1.2   c0.3,0.4,0.6,0.7,0.9,0.9c0.4,0.2,0.7,0.4,1.2,0.4c0.4,0,0.8-0.1,1.1-0.4s0.6-0.5,0.9-0.8s0.6-0.5,0.9-0.8c0.3-0.2,0.7-0.4,1.1-0.4   c0,0.4-0.2,0.8-0.5,1.2c-0.3,0.4-0.7,0.7-1.1,1c-0.5,0.3-0.9,0.6-1.4,0.7c-0.5,0.2-0.9,0.3-1.2,0.3c-0.6,0-1.2-0.1-1.7-0.4   C14.7,18.5,14.2,18.1,13.9,17.6z M17.5,7.8c-0.6,0-1.1,0.1-1.5,0.4c-0.4,0.3-0.7,0.6-1,1.1c-0.3,0.4-0.4,0.9-0.5,1.4   c-0.1,0.5-0.2,1-0.2,1.5c0.4,0,0.8,0,1.3-0.1c0.5-0.1,1.1-0.2,1.6-0.4c0.5-0.2,0.9-0.5,1.3-0.8c0.4-0.4,0.5-0.8,0.5-1.4   c0-0.2,0-0.4-0.1-0.6c-0.1-0.2-0.2-0.4-0.4-0.5C18.4,8.1,18.2,8,18,7.9C17.8,7.8,17.6,7.8,17.5,7.8z"
   id="path9" />
	<path
   fill="#073B5A"
   d="M27.8,14c0,0.6-0.2,1.2-0.5,1.8c-0.3,0.6-0.7,1-1.2,1.4c-0.5,0.4-1,0.7-1.6,0.9c-0.6,0.2-1.1,0.3-1.7,0.2   c-0.5-0.1-1-0.4-1.3-0.8c-0.4-0.5-0.6-1.1-0.6-2c-0.1-0.7-0.1-1.5,0.1-2.2c0.2-0.8,0.4-1.5,0.7-2.2c0.3-0.7,0.7-1.3,1.2-1.8   c0.5-0.5,1-0.9,1.5-1.1c0.5-0.2,1.1-0.3,1.7-0.2C26.6,8,27.1,8.4,27.6,9l0-8.8c0,0,0-0.1,0.1-0.1c0.1,0,0.2,0,0.3,0   c0.1,0,0.2,0,0.4,0c0.1,0,0.2,0,0.3,0c0.1,0,0.2,0.2,0.2,0.7C29,1.2,29,1.8,29.1,2.7c0,0.8,0.1,1.7,0.1,2.8c0,1,0,2.1,0.1,3.2   c0,1.1,0,2.2,0,3.4c0,1.1,0,2.2,0,3.1c0,1,0,1.8,0,2.5c0,0.7,0,1.2,0,1.5c-0.1,0-0.2,0-0.3,0c-0.2,0-0.3-0.1-0.5-0.1   c-0.2,0-0.3-0.1-0.4-0.2c-0.1-0.1-0.2-0.2-0.2-0.3V14z M27,10.6c-0.4-0.7-0.7-1.2-1.2-1.4C25.5,9,25.1,9,24.6,9.1s-0.8,0.4-1.2,0.9   c-0.4,0.4-0.7,0.9-1,1.5c-0.3,0.6-0.5,1.1-0.6,1.8s-0.2,1.2-0.1,1.7s0.2,1,0.5,1.4s0.8,0.6,1.4,0.7c0.4,0,0.7-0.1,1-0.4   c0.3-0.2,0.6-0.6,0.8-0.9c0.2-0.4,0.5-0.8,0.7-1.3c0.2-0.5,0.4-1,0.5-1.5c0.1-0.5,0.2-0.9,0.3-1.4C27,11.2,27,10.9,27,10.6z"
   id="path11" />
	<path
   fill="#073B5A"
   d="M33.2,28.8c-0.4,0-0.8,0-1.2-0.1c-0.4-0.1-0.7-0.2-1-0.4s-0.5-0.4-0.7-0.7s-0.2-0.6-0.2-0.9   c0.3,0,0.5,0.1,0.8,0.2c0.2,0.1,0.4,0.2,0.7,0.4c0.2,0.1,0.5,0.3,0.7,0.4c0.2,0.1,0.5,0.2,0.9,0.2c0.8,0,1.5-0.2,2.1-0.5   c0.6-0.4,1-0.8,1.4-1.4c0.3-0.6,0.6-1.2,0.7-2c0.2-0.7,0.2-1.5,0.2-2.3c0-0.2,0-0.5,0-0.9s0-0.9-0.1-1.5c0-0.5-0.1-1.1-0.1-1.7   c0-0.6-0.1-1.2-0.1-1.7c0-0.5-0.1-1-0.1-1.5c0-0.4-0.1-0.7-0.1-0.9c-0.1,0.3-0.3,0.6-0.4,1.1c-0.2,0.4-0.4,0.9-0.6,1.3   c-0.2,0.5-0.5,0.9-0.8,1.4s-0.6,0.9-0.9,1.2c-0.3,0.4-0.7,0.6-1.1,0.9s-0.8,0.3-1.3,0.3c-0.2,0-0.4-0.1-0.6-0.4   c-0.1-0.2-0.2-0.5-0.3-0.8c-0.1-0.3-0.1-0.6-0.1-0.9c0-0.3,0-0.5,0-0.7c-0.1-0.9-0.1-1.8,0-2.7c0.1-0.9,0.2-1.7,0.4-2.5   c0.2-0.8,0.5-1.5,0.9-2.1C32.6,8.8,33,8.4,33.5,8c0.5-0.4,1.1-0.6,1.8-0.6c0.7,0,1.4,0.1,2.3,0.5c0.2,0,0.4,0.1,0.5,0.4   c0.1,0.3,0.1,0.6,0.1,1.1c0,0.4,0,0.9-0.1,1.3c0,0.5-0.1,0.8-0.1,1.2c0,0.7,0,1.5,0.1,2.2c0.1,0.7,0.1,1.5,0.2,2.2   c0.1,0.7,0.1,1.5,0.2,2.2c0.1,0.7,0.1,1.5,0.1,2.2c0,0.9-0.1,1.8-0.3,2.7c-0.2,1-0.5,1.8-0.9,2.6c-0.4,0.8-1,1.5-1.7,2   C35.1,28.6,34.2,28.8,33.2,28.8z M31.9,16.3c0,0.1,0,0.3,0,0.5c0,0.2,0,0.4,0.1,0.6c0.1,0.2,0.1,0.4,0.2,0.5   c0.1,0.1,0.3,0.2,0.5,0.2c0.4,0,0.8-0.2,1.1-0.5s0.7-0.8,1-1.4c0.3-0.6,0.6-1.2,0.8-1.9s0.4-1.4,0.6-2c0.2-0.7,0.3-1.3,0.4-1.8   s0.1-0.9,0.1-1.2c-0.9-0.3-1.6-0.3-2.2,0c-0.6,0.3-1.1,0.8-1.5,1.6c-0.4,0.7-0.7,1.5-0.8,2.5S31.9,15.3,31.9,16.3z"
   id="path13" />
	<path
   fill="#073B5A"
   d="M40.6,17.6c-0.5-1.6-0.8-2.9-0.9-4.1c-0.1-1.2-0.2-2.1-0.1-3s0.3-1.5,0.6-2c0.3-0.5,0.7-0.9,1.1-1.2   c0.4-0.3,0.9-0.4,1.5-0.5c0.5-0.1,1-0.1,1.6,0c0.3,0,0.5,0.1,0.8,0.2c0.3,0.1,0.5,0.3,0.8,0.5c0.2,0.2,0.4,0.5,0.6,0.7   c0.1,0.3,0.2,0.5,0.2,0.8c0,0.8-0.2,1.4-0.5,1.9s-0.8,0.9-1.4,1.3c-0.6,0.3-1.2,0.6-1.8,0.8c-0.7,0.2-1.3,0.3-1.9,0.4   c0,0,0,0.1,0,0.2c0,0.1,0,0.2,0,0.3c0,0.1,0,0.2,0,0.3c0,0.1,0,0.2,0,0.2c0,0.4,0.1,0.8,0.2,1.2c0.1,0.4,0.3,0.8,0.6,1.2   c0.3,0.4,0.6,0.7,0.9,0.9c0.4,0.2,0.7,0.4,1.2,0.4c0.4,0,0.8-0.1,1.1-0.4s0.6-0.5,0.9-0.8s0.6-0.5,0.9-0.8c0.3-0.2,0.7-0.4,1.1-0.4   c0,0.4-0.2,0.8-0.5,1.2c-0.3,0.4-0.7,0.7-1.1,1c-0.5,0.3-0.9,0.6-1.4,0.7c-0.5,0.2-0.9,0.3-1.2,0.3c-0.6,0-1.2-0.1-1.7-0.4   C41.3,18.5,40.9,18.1,40.6,17.6z M44.1,7.8c-0.6,0-1.1,0.1-1.5,0.4c-0.4,0.3-0.7,0.6-1,1.1c-0.3,0.4-0.4,0.9-0.5,1.4   c-0.1,0.5-0.2,1-0.2,1.5c0.4,0,0.8,0,1.3-0.1c0.5-0.1,1.1-0.2,1.6-0.4c0.5-0.2,0.9-0.5,1.3-0.8c0.4-0.4,0.5-0.8,0.5-1.4   c0-0.2,0-0.4-0.1-0.6c-0.1-0.2-0.2-0.4-0.4-0.5C45,8.1,44.9,8,44.7,7.9C44.5,7.8,44.3,7.8,44.1,7.8z"
   id="path15" />
	<path
   fill="#073B5A"
   d="M58.8,2c0.1-0.1,0.2-0.2,0.3-0.3c0.1-0.1,0.3-0.1,0.4-0.2c0.1,0,0.3,0,0.4,0v8.3c0.2-0.3,0.5-0.7,0.8-1   c0.3-0.4,0.6-0.7,0.9-1c0.3-0.3,0.6-0.6,1-0.8s0.8-0.3,1.2-0.3c0.7,0,1.3,0.3,1.8,0.8C66,8,66.4,8.6,66.7,9.4s0.5,1.6,0.7,2.6   s0.3,1.9,0.3,2.8c0.1,0.9,0.1,1.7,0.1,2.4c0,0.7,0,1.3,0,1.6c0,0.2-0.1,0.4-0.2,0.5c-0.2,0.1-0.3,0.2-0.5,0.2c-0.2,0-0.3,0-0.5-0.1   c-0.1-0.1-0.2-0.2-0.3-0.4c0-0.1,0-0.4,0-0.8c0-0.4,0-0.8,0-1.2c0-0.5,0-1,0-1.5c0-0.5,0-1,0-1.5c0-0.5,0-0.9,0-1.2   c0-0.4,0-0.6,0-0.8c0-0.3-0.1-0.7-0.2-1.1c-0.1-0.4-0.2-0.9-0.4-1.3c-0.2-0.4-0.4-0.8-0.7-1.1c-0.3-0.3-0.6-0.4-1-0.4   c-0.6,0-1.1,0.2-1.5,0.7c-0.4,0.4-0.8,1-1.1,1.7c-0.3,0.7-0.5,1.4-0.7,2.3c-0.2,0.8-0.3,1.6-0.4,2.4c-0.1,0.8-0.1,1.5-0.2,2.1   c0,0.6,0,1.1,0,1.4l-1.6,0c0-2.1,0.1-4.2,0.1-6.2c0-0.8,0-1.7,0-2.6c0-0.9,0-1.8,0-2.6c0-0.9,0-1.7,0-2.4c0-0.8,0-1.5,0-2.1V2.4   C58.7,2.3,58.7,2.1,58.8,2z"
   id="path17" />
	<path
   fill="#073B5A"
   d="M69.4,17.6c-0.5-1.6-0.8-2.9-0.9-4.1c-0.1-1.2-0.2-2.1-0.1-3s0.3-1.5,0.6-2c0.3-0.5,0.7-0.9,1.1-1.2   c0.4-0.3,0.9-0.4,1.5-0.5c0.5-0.1,1-0.1,1.6,0c0.3,0,0.5,0.1,0.8,0.2c0.3,0.1,0.5,0.3,0.8,0.5C75,7.8,75.2,8,75.4,8.3   c0.1,0.3,0.2,0.5,0.2,0.8c0,0.8-0.2,1.4-0.5,1.9s-0.8,0.9-1.4,1.3c-0.6,0.3-1.2,0.6-1.8,0.8c-0.7,0.2-1.3,0.3-1.9,0.4   c0,0,0,0.1,0,0.2c0,0.1,0,0.2,0,0.3c0,0.1,0,0.2,0,0.3c0,0.1,0,0.2,0,0.2c0,0.4,0.1,0.8,0.2,1.2c0.1,0.4,0.3,0.8,0.6,1.2   c0.3,0.4,0.6,0.7,0.9,0.9c0.4,0.2,0.7,0.4,1.2,0.4c0.4,0,0.8-0.1,1.1-0.4s0.6-0.5,0.9-0.8s0.6-0.5,0.9-0.8c0.3-0.2,0.7-0.4,1.1-0.4   c0,0.4-0.2,0.8-0.5,1.2c-0.3,0.4-0.7,0.7-1.1,1c-0.5,0.3-0.9,0.6-1.4,0.7c-0.5,0.2-0.9,0.3-1.2,0.3c-0.6,0-1.2-0.1-1.7-0.4   C70.2,18.5,69.8,18.1,69.4,17.6z M73,7.8c-0.6,0-1.1,0.1-1.5,0.4c-0.4,0.3-0.7,0.6-1,1.1c-0.3,0.4-0.4,0.9-0.5,1.4   c-0.1,0.5-0.2,1-0.2,1.5c0.4,0,0.8,0,1.3-0.1c0.5-0.1,1.1-0.2,1.6-0.4c0.5-0.2,0.9-0.5,1.3-0.8c0.4-0.4,0.5-0.8,0.5-1.4   c0-0.2,0-0.4-0.1-0.6c-0.1-0.2-0.2-0.4-0.4-0.5c-0.1-0.1-0.3-0.3-0.5-0.4C73.3,7.8,73.2,7.8,73,7.8z"
   id="path19" />
	<path
   fill="#073B5A"
   d="M76.9,10.4c0-0.2-0.1-0.4-0.2-0.7c-0.1-0.3-0.1-0.6-0.2-0.9c-0.1-0.3-0.1-0.6-0.1-0.9c0-0.3,0-0.5,0.1-0.7   c0.1-0.2,0.2-0.3,0.5-0.3s0.5,0.1,0.9,0.3C78,7.5,78,7.7,78.1,8c0.1,0.3,0.1,0.7,0.2,1.1c0.1,0.4,0.1,0.7,0.2,1.1   c0,0.3,0.1,0.6,0.1,0.7c0.3-0.6,0.6-1.1,1-1.6c0.4-0.5,0.9-1,1.4-1.4C81.4,7.5,82,7.2,82.6,7c0.6-0.2,1.3-0.3,2-0.3l-0.2,1.2   C83.5,8,82.6,8.4,81.8,9c-0.8,0.6-1.5,1.4-2,2.4c-0.5,1-0.9,2.1-1.1,3.4c-0.2,1.3-0.1,2.7,0.2,4.3l-1.4,0.3c0,0,0-0.2-0.1-0.5   c0-0.3-0.1-0.8-0.1-1.3c0-0.5-0.1-1.1-0.1-1.8c0-0.7-0.1-1.3-0.1-2c0-0.7-0.1-1.3-0.1-1.9C77,11.3,77,10.8,76.9,10.4z"
   id="path21" />
	<path
   fill="#073B5A"
   d="M86.1,17.6c-0.5-1.6-0.8-2.9-0.9-4.1c-0.1-1.2-0.2-2.1-0.1-3s0.3-1.5,0.6-2c0.3-0.5,0.7-0.9,1.1-1.2   c0.4-0.3,0.9-0.4,1.5-0.5c0.5-0.1,1-0.1,1.6,0c0.3,0,0.5,0.1,0.8,0.2c0.3,0.1,0.5,0.3,0.8,0.5c0.2,0.2,0.4,0.5,0.6,0.7   c0.1,0.3,0.2,0.5,0.2,0.8c0,0.8-0.2,1.4-0.5,1.9s-0.8,0.9-1.4,1.3c-0.6,0.3-1.2,0.6-1.8,0.8c-0.7,0.2-1.3,0.3-1.9,0.4   c0,0,0,0.1,0,0.2c0,0.1,0,0.2,0,0.3c0,0.1,0,0.2,0,0.3c0,0.1,0,0.2,0,0.2c0,0.4,0.1,0.8,0.2,1.2c0.1,0.4,0.3,0.8,0.6,1.2   c0.3,0.4,0.6,0.7,0.9,0.9c0.4,0.2,0.7,0.4,1.2,0.4c0.4,0,0.8-0.1,1.1-0.4s0.6-0.5,0.9-0.8s0.6-0.5,0.9-0.8c0.3-0.2,0.7-0.4,1.1-0.4   c0,0.4-0.2,0.8-0.5,1.2c-0.3,0.4-0.7,0.7-1.1,1c-0.5,0.3-0.9,0.6-1.4,0.7c-0.5,0.2-0.9,0.3-1.2,0.3c-0.6,0-1.2-0.1-1.7-0.4   C86.9,18.5,86.5,18.1,86.1,17.6z M89.7,7.8c-0.6,0-1.1,0.1-1.5,0.4c-0.4,0.3-0.7,0.6-1,1.1c-0.3,0.4-0.4,0.9-0.5,1.4   c-0.1,0.5-0.2,1-0.2,1.5c0.4,0,0.8,0,1.3-0.1c0.5-0.1,1.1-0.2,1.6-0.4c0.5-0.2,0.9-0.5,1.3-0.8c0.4-0.4,0.5-0.8,0.5-1.4   c0-0.2,0-0.4-0.1-0.6c-0.1-0.2-0.2-0.4-0.4-0.5c-0.1-0.1-0.3-0.3-0.5-0.4C90,7.8,89.9,7.8,89.7,7.8z"
   id="path23" />
</g>
<g
   id="g25">
	<path
   d="m 88.917101,48.6 c -0.1,0.1 -0.1,0.1 -0.2,0.2 -1.3,1.3 -2.5,2.7 -3.8,4 -0.1,0.1 -0.1,0.2 0,0.3 0.1,0.1 0.3,0.2 0.4,0.4 0.2,0.2 0.3,0.2 0.4,0 1,-0.9 2,-1.8 3.1,-2.6 1.2,-1 2.5,-1.9 3.8,-2.9 0.1,-0.1 0.1,-0.1 0.2,-0.2 -0.1,-0.1 -0.2,-0.1 -0.2,-0.2 -2.4,-1.7 -4.6,-3.5 -6.8,-5.4 -0.3,-0.3 -0.3,-0.3 -0.6,0 -0.5,0.5 -0.5,0.5 0,1 1.2,1.3 2.4,2.5 3.6,3.8 0,0 0.1,0.1 0.1,0.1 -0.1,0 -0.1,0 -0.2,0 -1.9,0 -3.8,0 -5.7,-0.4 -4,-0.8 -7.4,-2.6 -10.2,-5.5 -2.2,-2.4 -3.7,-5.3 -4.4,-8.4 -0.4,-1.7 -0.6,-3.5 -0.5,-5.3 0,-0.4 0,-0.4 -0.4,-0.4 -0.2,0 -0.4,0 -0.6,0 -0.2,0 -0.3,0.1 -0.3,0.3 0,1.5 0.1,3 0.3,4.6 0.5,2.8 1.5,5.5 3.1,7.9 2.6,3.9 6.2,6.4 10.7,7.8 1.8,0.5 3.6,0.8 5.5,0.9 0.8,0 1.6,0 2.3,0 0.2,-0.1 0.3,-0.1 0.4,0 0,0 0,0 0,0 l 0,0 z"
   id="path27"
   inkscape:connector-curvature="0"
   style="fill:#073b5a" />
</g>
</svg>