<?xml version="1.0" encoding="UTF-8" standalone="no"?>
<!-- Created with Inkscape (http://www.inkscape.org/) -->

<svg
   xmlns:dc="http://purl.org/dc/elements/1.1/"
   xmlns:cc="http://creativecommons.org/ns#"
   xmlns:rdf="http://www.w3.org/1999/02/22-rdf-syntax-ns#"
   xmlns:svg="http://www.w3.org/2000/svg"
   xmlns="http://www.w3.org/2000/svg"
   xmlns:sodipodi="http://sodipodi.sourceforge.net/DTD/sodipodi-0.dtd"
   xmlns:inkscape="http://www.inkscape.org/namespaces/inkscape"
   width="44.357655"
   height="44.356407"
   id="svg3399"
   version="1.1"
   inkscape:version="0.48.3.1 r9886"
   sodipodi:docname="search.svg">
  <defs
     id="defs3401" />
  <sodipodi:namedview
     id="base"
     pagecolor="#ffffff"
     bordercolor="#666666"
     borderopacity="1.0"
     inkscape:pageopacity="0.0"
     inkscape:pageshadow="2"
     inkscape:zoom="5.6"
     inkscape:cx="0.7547085"
     inkscape:cy="20.90842"
     inkscape:document-units="px"
     inkscape:current-layer="layer1"
     showgrid="false"
     fit-margin-top="0"
     fit-margin-left="0"
     fit-margin-right="0"
     fit-margin-bottom="0"
     inkscape:window-width="1344"
     inkscape:window-height="697"
     inkscape:window-x="1"
     inkscape:window-y="66"
     inkscape:window-maximized="0" />
  <metadata
     id="metadata3404">
    <rdf:RDF>
      <cc:Work
         rdf:about="">
        <dc:format>image/svg+xml</dc:format>
        <dc:type
           rdf:resource="http://purl.org/dc/dcmitype/StillImage" />
        <dc:title />
      </cc:Work>
    </rdf:RDF>
  </metadata>
  <g
     inkscape:label="Layer 1"
     inkscape:groupmode="layer"
     id="layer1"
     transform="translate(-352.82118,-510.18397)">
    <g
       id="g192"
       transform="matrix(0.9017609,0,0,-0.90178631,381.39118,534.73291)">
      <path
         inkscape:connector-curvature="0"
         d="m 0,0 9.733,-9.733 c 1.231,-1.231 1.229,-3.229 10e-4,-4.456 -1.231,-1.232 -3.225,-1.234 -4.458,10e-4 l -9.733,9.733 c -5.157,-3.154 -11.988,-2.499 -16.451,1.964 -5.23,5.231 -5.23,13.711 0,18.94 5.231,5.23 13.711,5.23 18.942,0 C 2.497,11.986 3.153,5.158 0,0 m -18.678,-0.264 c -4.001,4.002 -4.001,10.486 0,14.485 3.999,3.999 10.483,3.999 14.485,0 3.999,-3.999 3.999,-10.483 0,-14.485 -4.002,-3.999 -10.486,-3.999 -14.485,0"
         style="fill:#073a5a;fill-opacity:1;fill-rule:evenodd;stroke:none"
         id="path194" />
    </g>
  </g>
</svg>
